<mxfile host="app.diagrams.net" modified="2024-03-07T07:55:21.883Z" agent="Mozilla/5.0 (Windows NT 10.0; Win64; x64) AppleWebKit/537.36 (KHTML, like Gecko) Chrome/122.0.0.0 Safari/537.36" etag="rlfqxG-y0kTBPrfBvOuB" version="24.0.2" type="device">
  <diagram name="페이지-1" id="o8VGm7bU5-r0sVppwj5N">
    <mxGraphModel dx="1395" dy="622" grid="1" gridSize="10" guides="1" tooltips="1" connect="1" arrows="1" fold="1" page="1" pageScale="1" pageWidth="827" pageHeight="1169" math="0" shadow="0">
      <root>
        <mxCell id="0" />
        <mxCell id="1" parent="0" />
        <mxCell id="EvhGQZ-n6xuBOraroLwr-2" value="&lt;h1&gt;학점 산출 프로그램 시나리오&lt;/h1&gt;&lt;div&gt;&lt;br&gt;&lt;/div&gt;" style="text;html=1;spacing=5;spacingTop=-20;whiteSpace=wrap;overflow=hidden;rounded=0;" vertex="1" parent="1">
          <mxGeometry x="40" y="40" width="330" height="120" as="geometry" />
        </mxCell>
        <mxCell id="EvhGQZ-n6xuBOraroLwr-49" style="edgeStyle=orthogonalEdgeStyle;rounded=0;orthogonalLoop=1;jettySize=auto;html=1;exitX=0;exitY=0.5;exitDx=0;exitDy=0;entryX=1;entryY=0.5;entryDx=0;entryDy=0;" edge="1" parent="1" source="EvhGQZ-n6xuBOraroLwr-3" target="EvhGQZ-n6xuBOraroLwr-47">
          <mxGeometry relative="1" as="geometry" />
        </mxCell>
        <mxCell id="EvhGQZ-n6xuBOraroLwr-53" style="edgeStyle=orthogonalEdgeStyle;rounded=0;orthogonalLoop=1;jettySize=auto;html=1;exitX=1;exitY=0.5;exitDx=0;exitDy=0;entryX=0;entryY=0.5;entryDx=0;entryDy=0;" edge="1" parent="1" source="EvhGQZ-n6xuBOraroLwr-3" target="EvhGQZ-n6xuBOraroLwr-52">
          <mxGeometry relative="1" as="geometry" />
        </mxCell>
        <mxCell id="EvhGQZ-n6xuBOraroLwr-3" value="학생&lt;div&gt;(Student)&lt;/div&gt;" style="rounded=0;whiteSpace=wrap;html=1;" vertex="1" parent="1">
          <mxGeometry x="345" y="230" width="120" height="60" as="geometry" />
        </mxCell>
        <mxCell id="EvhGQZ-n6xuBOraroLwr-4" value="과목&lt;div&gt;(Subject)&lt;/div&gt;" style="rounded=0;whiteSpace=wrap;html=1;" vertex="1" parent="1">
          <mxGeometry x="175" y="360" width="120" height="60" as="geometry" />
        </mxCell>
        <mxCell id="EvhGQZ-n6xuBOraroLwr-5" value="점수&lt;div&gt;(Score)&lt;/div&gt;" style="rounded=0;whiteSpace=wrap;html=1;" vertex="1" parent="1">
          <mxGeometry x="530" y="360" width="120" height="60" as="geometry" />
        </mxCell>
        <mxCell id="EvhGQZ-n6xuBOraroLwr-6" value="학번&lt;div&gt;(no)&lt;/div&gt;" style="ellipse;whiteSpace=wrap;html=1;" vertex="1" parent="1">
          <mxGeometry x="275" y="160" width="80" height="40" as="geometry" />
        </mxCell>
        <mxCell id="EvhGQZ-n6xuBOraroLwr-56" style="edgeStyle=orthogonalEdgeStyle;rounded=0;orthogonalLoop=1;jettySize=auto;html=1;exitX=0.5;exitY=1;exitDx=0;exitDy=0;" edge="1" parent="1" source="EvhGQZ-n6xuBOraroLwr-7">
          <mxGeometry relative="1" as="geometry">
            <mxPoint x="405" y="90" as="targetPoint" />
          </mxGeometry>
        </mxCell>
        <mxCell id="EvhGQZ-n6xuBOraroLwr-7" value="개체&lt;div&gt;(Entity)&lt;/div&gt;" style="rounded=0;whiteSpace=wrap;html=1;" vertex="1" parent="1">
          <mxGeometry x="370" y="40" width="70" height="40" as="geometry" />
        </mxCell>
        <mxCell id="EvhGQZ-n6xuBOraroLwr-58" style="edgeStyle=orthogonalEdgeStyle;rounded=0;orthogonalLoop=1;jettySize=auto;html=1;exitX=0.5;exitY=1;exitDx=0;exitDy=0;" edge="1" parent="1" source="EvhGQZ-n6xuBOraroLwr-10">
          <mxGeometry relative="1" as="geometry">
            <mxPoint x="500" y="90" as="targetPoint" />
          </mxGeometry>
        </mxCell>
        <mxCell id="EvhGQZ-n6xuBOraroLwr-10" value="&lt;div&gt;속성&lt;/div&gt;&lt;div&gt;(Attribute)&lt;/div&gt;" style="ellipse;whiteSpace=wrap;html=1;" vertex="1" parent="1">
          <mxGeometry x="460" y="40" width="80" height="40" as="geometry" />
        </mxCell>
        <mxCell id="EvhGQZ-n6xuBOraroLwr-13" value="이름&lt;div&gt;(name)&lt;/div&gt;" style="ellipse;whiteSpace=wrap;html=1;" vertex="1" parent="1">
          <mxGeometry x="365" y="160" width="80" height="40" as="geometry" />
        </mxCell>
        <mxCell id="EvhGQZ-n6xuBOraroLwr-14" value="필수과목&lt;div&gt;(subject)&lt;/div&gt;" style="ellipse;whiteSpace=wrap;html=1;" vertex="1" parent="1">
          <mxGeometry x="455" y="160" width="80" height="40" as="geometry" />
        </mxCell>
        <mxCell id="EvhGQZ-n6xuBOraroLwr-16" value="과목코드&lt;div&gt;(code)&lt;/div&gt;" style="ellipse;whiteSpace=wrap;html=1;" vertex="1" parent="1">
          <mxGeometry x="105" y="450" width="80" height="40" as="geometry" />
        </mxCell>
        <mxCell id="EvhGQZ-n6xuBOraroLwr-19" value="평가방법&lt;div&gt;(style)&lt;/div&gt;" style="ellipse;whiteSpace=wrap;html=1;" vertex="1" parent="1">
          <mxGeometry x="195" y="450" width="80" height="40" as="geometry" />
        </mxCell>
        <mxCell id="EvhGQZ-n6xuBOraroLwr-20" value="과목명&lt;div&gt;(subjectName)&lt;/div&gt;" style="ellipse;whiteSpace=wrap;html=1;" vertex="1" parent="1">
          <mxGeometry x="285" y="450" width="80" height="40" as="geometry" />
        </mxCell>
        <mxCell id="EvhGQZ-n6xuBOraroLwr-21" value="과목&lt;div&gt;(subject)&lt;/div&gt;" style="ellipse;whiteSpace=wrap;html=1;" vertex="1" parent="1">
          <mxGeometry x="550" y="450" width="80" height="40" as="geometry" />
        </mxCell>
        <mxCell id="EvhGQZ-n6xuBOraroLwr-22" value="학번&lt;div&gt;(no)&lt;/div&gt;" style="ellipse;whiteSpace=wrap;html=1;" vertex="1" parent="1">
          <mxGeometry x="460" y="450" width="80" height="40" as="geometry" />
        </mxCell>
        <mxCell id="EvhGQZ-n6xuBOraroLwr-23" value="점수&lt;div&gt;(point)&lt;/div&gt;" style="ellipse;whiteSpace=wrap;html=1;" vertex="1" parent="1">
          <mxGeometry x="640" y="450" width="80" height="40" as="geometry" />
        </mxCell>
        <mxCell id="EvhGQZ-n6xuBOraroLwr-26" value="1" style="text;html=1;align=center;verticalAlign=middle;resizable=0;points=[];autosize=1;strokeColor=none;fillColor=none;" vertex="1" parent="1">
          <mxGeometry x="465" y="230" width="30" height="30" as="geometry" />
        </mxCell>
        <mxCell id="EvhGQZ-n6xuBOraroLwr-27" value="n" style="text;html=1;align=center;verticalAlign=middle;resizable=0;points=[];autosize=1;strokeColor=none;fillColor=none;" vertex="1" parent="1">
          <mxGeometry x="600" y="330" width="30" height="30" as="geometry" />
        </mxCell>
        <mxCell id="EvhGQZ-n6xuBOraroLwr-29" value="n" style="text;html=1;align=center;verticalAlign=middle;resizable=0;points=[];autosize=1;strokeColor=none;fillColor=none;" vertex="1" parent="1">
          <mxGeometry x="310" y="230" width="30" height="30" as="geometry" />
        </mxCell>
        <mxCell id="EvhGQZ-n6xuBOraroLwr-30" value="1" style="text;html=1;align=center;verticalAlign=middle;resizable=0;points=[];autosize=1;strokeColor=none;fillColor=none;" vertex="1" parent="1">
          <mxGeometry x="195" y="330" width="30" height="30" as="geometry" />
        </mxCell>
        <mxCell id="EvhGQZ-n6xuBOraroLwr-33" value="" style="endArrow=none;html=1;rounded=0;exitX=1;exitY=0.5;exitDx=0;exitDy=0;entryX=0;entryY=0.5;entryDx=0;entryDy=0;" edge="1" parent="1" source="EvhGQZ-n6xuBOraroLwr-4" target="EvhGQZ-n6xuBOraroLwr-5">
          <mxGeometry width="50" height="50" relative="1" as="geometry">
            <mxPoint x="390" y="410" as="sourcePoint" />
            <mxPoint x="440" y="360" as="targetPoint" />
          </mxGeometry>
        </mxCell>
        <mxCell id="EvhGQZ-n6xuBOraroLwr-34" value="1" style="text;html=1;align=center;verticalAlign=middle;resizable=0;points=[];autosize=1;strokeColor=none;fillColor=none;" vertex="1" parent="1">
          <mxGeometry x="295" y="360" width="30" height="30" as="geometry" />
        </mxCell>
        <mxCell id="EvhGQZ-n6xuBOraroLwr-37" value="1" style="text;html=1;align=center;verticalAlign=middle;resizable=0;points=[];autosize=1;strokeColor=none;fillColor=none;" vertex="1" parent="1">
          <mxGeometry x="500" y="360" width="30" height="30" as="geometry" />
        </mxCell>
        <mxCell id="EvhGQZ-n6xuBOraroLwr-38" value="" style="endArrow=none;html=1;rounded=0;exitX=0.5;exitY=1;exitDx=0;exitDy=0;entryX=0.5;entryY=0;entryDx=0;entryDy=0;" edge="1" parent="1" source="EvhGQZ-n6xuBOraroLwr-6" target="EvhGQZ-n6xuBOraroLwr-3">
          <mxGeometry width="50" height="50" relative="1" as="geometry">
            <mxPoint x="390" y="410" as="sourcePoint" />
            <mxPoint x="440" y="360" as="targetPoint" />
          </mxGeometry>
        </mxCell>
        <mxCell id="EvhGQZ-n6xuBOraroLwr-39" value="" style="endArrow=none;html=1;rounded=0;exitX=0.5;exitY=1;exitDx=0;exitDy=0;entryX=0.5;entryY=0;entryDx=0;entryDy=0;" edge="1" parent="1" source="EvhGQZ-n6xuBOraroLwr-13" target="EvhGQZ-n6xuBOraroLwr-3">
          <mxGeometry width="50" height="50" relative="1" as="geometry">
            <mxPoint x="400" y="200" as="sourcePoint" />
            <mxPoint x="490" y="230" as="targetPoint" />
          </mxGeometry>
        </mxCell>
        <mxCell id="EvhGQZ-n6xuBOraroLwr-40" value="" style="endArrow=none;html=1;rounded=0;exitX=0.5;exitY=1;exitDx=0;exitDy=0;" edge="1" parent="1" source="EvhGQZ-n6xuBOraroLwr-14">
          <mxGeometry width="50" height="50" relative="1" as="geometry">
            <mxPoint x="414" y="200" as="sourcePoint" />
            <mxPoint x="410" y="230" as="targetPoint" />
          </mxGeometry>
        </mxCell>
        <mxCell id="EvhGQZ-n6xuBOraroLwr-41" value="" style="endArrow=none;html=1;rounded=0;exitX=0.5;exitY=0;exitDx=0;exitDy=0;" edge="1" parent="1" source="EvhGQZ-n6xuBOraroLwr-16">
          <mxGeometry width="50" height="50" relative="1" as="geometry">
            <mxPoint x="390" y="410" as="sourcePoint" />
            <mxPoint x="230" y="420" as="targetPoint" />
          </mxGeometry>
        </mxCell>
        <mxCell id="EvhGQZ-n6xuBOraroLwr-42" value="" style="endArrow=none;html=1;rounded=0;entryX=0.5;entryY=1;entryDx=0;entryDy=0;exitX=0.5;exitY=0;exitDx=0;exitDy=0;" edge="1" parent="1" source="EvhGQZ-n6xuBOraroLwr-19" target="EvhGQZ-n6xuBOraroLwr-4">
          <mxGeometry width="50" height="50" relative="1" as="geometry">
            <mxPoint x="280" y="470" as="sourcePoint" />
            <mxPoint x="330" y="420" as="targetPoint" />
          </mxGeometry>
        </mxCell>
        <mxCell id="EvhGQZ-n6xuBOraroLwr-43" value="" style="endArrow=none;html=1;rounded=0;entryX=0.5;entryY=1;entryDx=0;entryDy=0;exitX=0.5;exitY=0;exitDx=0;exitDy=0;" edge="1" parent="1" source="EvhGQZ-n6xuBOraroLwr-20" target="EvhGQZ-n6xuBOraroLwr-4">
          <mxGeometry width="50" height="50" relative="1" as="geometry">
            <mxPoint x="290" y="470" as="sourcePoint" />
            <mxPoint x="340" y="420" as="targetPoint" />
          </mxGeometry>
        </mxCell>
        <mxCell id="EvhGQZ-n6xuBOraroLwr-44" value="" style="endArrow=none;html=1;rounded=0;entryX=0.5;entryY=1;entryDx=0;entryDy=0;exitX=0.5;exitY=0;exitDx=0;exitDy=0;" edge="1" parent="1" source="EvhGQZ-n6xuBOraroLwr-22" target="EvhGQZ-n6xuBOraroLwr-5">
          <mxGeometry width="50" height="50" relative="1" as="geometry">
            <mxPoint x="500" y="460" as="sourcePoint" />
            <mxPoint x="550" y="410" as="targetPoint" />
          </mxGeometry>
        </mxCell>
        <mxCell id="EvhGQZ-n6xuBOraroLwr-45" value="" style="endArrow=none;html=1;rounded=0;exitX=0.5;exitY=0;exitDx=0;exitDy=0;" edge="1" parent="1" source="EvhGQZ-n6xuBOraroLwr-21">
          <mxGeometry width="50" height="50" relative="1" as="geometry">
            <mxPoint x="520" y="500" as="sourcePoint" />
            <mxPoint x="590" y="420" as="targetPoint" />
          </mxGeometry>
        </mxCell>
        <mxCell id="EvhGQZ-n6xuBOraroLwr-46" value="" style="endArrow=none;html=1;rounded=0;entryX=0.5;entryY=1;entryDx=0;entryDy=0;exitX=0.5;exitY=0;exitDx=0;exitDy=0;" edge="1" parent="1" source="EvhGQZ-n6xuBOraroLwr-23" target="EvhGQZ-n6xuBOraroLwr-5">
          <mxGeometry width="50" height="50" relative="1" as="geometry">
            <mxPoint x="650" y="450" as="sourcePoint" />
            <mxPoint x="700" y="400" as="targetPoint" />
          </mxGeometry>
        </mxCell>
        <mxCell id="EvhGQZ-n6xuBOraroLwr-47" value="수강" style="rhombus;whiteSpace=wrap;html=1;" vertex="1" parent="1">
          <mxGeometry x="195" y="240" width="80" height="40" as="geometry" />
        </mxCell>
        <mxCell id="EvhGQZ-n6xuBOraroLwr-50" style="edgeStyle=orthogonalEdgeStyle;rounded=0;orthogonalLoop=1;jettySize=auto;html=1;exitX=0.5;exitY=1;exitDx=0;exitDy=0;entryX=0.617;entryY=0;entryDx=0;entryDy=0;entryPerimeter=0;" edge="1" parent="1" source="EvhGQZ-n6xuBOraroLwr-47" target="EvhGQZ-n6xuBOraroLwr-4">
          <mxGeometry relative="1" as="geometry">
            <Array as="points">
              <mxPoint x="235" y="360" />
            </Array>
          </mxGeometry>
        </mxCell>
        <mxCell id="EvhGQZ-n6xuBOraroLwr-54" style="edgeStyle=orthogonalEdgeStyle;rounded=0;orthogonalLoop=1;jettySize=auto;html=1;exitX=0.5;exitY=1;exitDx=0;exitDy=0;entryX=0.5;entryY=0;entryDx=0;entryDy=0;" edge="1" parent="1" source="EvhGQZ-n6xuBOraroLwr-52" target="EvhGQZ-n6xuBOraroLwr-5">
          <mxGeometry relative="1" as="geometry" />
        </mxCell>
        <mxCell id="EvhGQZ-n6xuBOraroLwr-52" value="응시" style="rhombus;whiteSpace=wrap;html=1;" vertex="1" parent="1">
          <mxGeometry x="550" y="240" width="80" height="40" as="geometry" />
        </mxCell>
        <mxCell id="EvhGQZ-n6xuBOraroLwr-60" style="edgeStyle=orthogonalEdgeStyle;rounded=0;orthogonalLoop=1;jettySize=auto;html=1;exitX=0.5;exitY=1;exitDx=0;exitDy=0;" edge="1" parent="1" source="EvhGQZ-n6xuBOraroLwr-55">
          <mxGeometry relative="1" as="geometry">
            <mxPoint x="600" y="90" as="targetPoint" />
          </mxGeometry>
        </mxCell>
        <mxCell id="EvhGQZ-n6xuBOraroLwr-55" value="관계&lt;div&gt;(Relation)&lt;/div&gt;" style="rhombus;whiteSpace=wrap;html=1;" vertex="1" parent="1">
          <mxGeometry x="560" y="40" width="80" height="40" as="geometry" />
        </mxCell>
        <mxCell id="EvhGQZ-n6xuBOraroLwr-57" value="클래스" style="text;html=1;align=center;verticalAlign=middle;resizable=0;points=[];autosize=1;strokeColor=none;fillColor=none;" vertex="1" parent="1">
          <mxGeometry x="370" y="88" width="60" height="30" as="geometry" />
        </mxCell>
        <mxCell id="EvhGQZ-n6xuBOraroLwr-59" value="멤버필드" style="text;html=1;align=center;verticalAlign=middle;resizable=0;points=[];autosize=1;strokeColor=none;fillColor=none;" vertex="1" parent="1">
          <mxGeometry x="465" y="88" width="70" height="30" as="geometry" />
        </mxCell>
        <mxCell id="EvhGQZ-n6xuBOraroLwr-62" value="메소드" style="text;html=1;align=center;verticalAlign=middle;resizable=0;points=[];autosize=1;strokeColor=none;fillColor=none;" vertex="1" parent="1">
          <mxGeometry x="570" y="88" width="60" height="30" as="geometry" />
        </mxCell>
        <mxCell id="EvhGQZ-n6xuBOraroLwr-63" value="&lt;b&gt;&lt;font style=&quot;font-size: 14px;&quot;&gt;&amp;lt;정보공학적 ERD(내부용)&amp;gt;&lt;/font&gt;&lt;/b&gt;&lt;div&gt;&lt;b&gt;(Entity Relationship Diagram)&lt;/b&gt;&lt;/div&gt;&lt;div&gt;&lt;b&gt;중요!&lt;/b&gt;&lt;/div&gt;" style="text;html=1;align=center;verticalAlign=middle;resizable=0;points=[];autosize=1;strokeColor=none;fillColor=none;" vertex="1" parent="1">
          <mxGeometry x="50" y="80" width="190" height="60" as="geometry" />
        </mxCell>
        <mxCell id="EvhGQZ-n6xuBOraroLwr-64" value="&lt;b&gt;데이터베이스 ERD도 있음(공개용)&lt;/b&gt;" style="text;html=1;align=center;verticalAlign=middle;resizable=0;points=[];autosize=1;strokeColor=none;fillColor=none;" vertex="1" parent="1">
          <mxGeometry x="40" y="145" width="210" height="30" as="geometry" />
        </mxCell>
        <mxCell id="EvhGQZ-n6xuBOraroLwr-65" value="" style="endArrow=classic;html=1;rounded=0;" edge="1" parent="1">
          <mxGeometry width="50" height="50" relative="1" as="geometry">
            <mxPoint x="670" y="49.5" as="sourcePoint" />
            <mxPoint x="730" y="49.5" as="targetPoint" />
          </mxGeometry>
        </mxCell>
        <mxCell id="EvhGQZ-n6xuBOraroLwr-66" value="" style="endArrow=none;html=1;rounded=0;" edge="1" parent="1">
          <mxGeometry width="50" height="50" relative="1" as="geometry">
            <mxPoint x="670" y="69.5" as="sourcePoint" />
            <mxPoint x="730" y="69.5" as="targetPoint" />
          </mxGeometry>
        </mxCell>
        <mxCell id="EvhGQZ-n6xuBOraroLwr-67" value="연결&lt;div&gt;(Link)&lt;/div&gt;" style="text;html=1;align=center;verticalAlign=middle;resizable=0;points=[];autosize=1;strokeColor=none;fillColor=none;" vertex="1" parent="1">
          <mxGeometry x="670" y="78" width="50" height="40" as="geometry" />
        </mxCell>
      </root>
    </mxGraphModel>
  </diagram>
</mxfile>
